<svg width="311" height="49" viewBox="0 0 311 49" fill="none" xmlns="http://www.w3.org/2000/svg">
<path d="M24.5526 49C38.1127 49 49.1053 38.031 49.1053 24.5C49.1053 10.969 38.1127 0 24.5526 0C10.9926 0 0 10.969 0 24.5C0 38.031 10.9926 49 24.5526 49Z" fill="#0029FF"/>
<path d="M13.9131 26.1334C15.2692 26.1334 16.3684 25.0365 16.3684 23.6834C16.3684 22.3303 15.2692 21.2334 13.9131 21.2334C12.5571 21.2334 11.4579 22.3303 11.4579 23.6834C11.4579 25.0365 12.5571 26.1334 13.9131 26.1334Z" fill="white"/>
<path opacity="0.1" d="M15.55 19.6002C16.906 19.6002 18.0053 18.5033 18.0053 17.1502C18.0053 15.7971 16.906 14.7002 15.55 14.7002C14.194 14.7002 13.0947 15.7971 13.0947 17.1502C13.0947 18.5033 14.194 19.6002 15.55 19.6002Z" fill="white"/>
<path opacity="0.1" d="M15.55 32.6666C16.906 32.6666 18.0053 31.5697 18.0053 30.2166C18.0053 28.8635 16.906 27.7666 15.55 27.7666C14.194 27.7666 13.0947 28.8635 13.0947 30.2166C13.0947 31.5697 14.194 32.6666 15.55 32.6666Z" fill="white"/>
<path opacity="0.1" d="M35.1921 32.6666C36.5481 32.6666 37.6473 31.5697 37.6473 30.2166C37.6473 28.8635 36.5481 27.7666 35.1921 27.7666C33.8361 27.7666 32.7368 28.8635 32.7368 30.2166C32.7368 31.5697 33.8361 32.6666 35.1921 32.6666Z" fill="white"/>
<path opacity="0.1" d="M35.1921 19.6002C36.5481 19.6002 37.6473 18.5033 37.6473 17.1502C37.6473 15.7971 36.5481 14.7002 35.1921 14.7002C33.8361 14.7002 32.7368 15.7971 32.7368 17.1502C32.7368 18.5033 33.8361 19.6002 35.1921 19.6002Z" fill="white"/>
<path d="M20.4605 37.5665C21.8165 37.5665 22.9158 36.4696 22.9158 35.1165C22.9158 33.7634 21.8165 32.6665 20.4605 32.6665C19.1045 32.6665 18.0052 33.7634 18.0052 35.1165C18.0052 36.4696 19.1045 37.5665 20.4605 37.5665Z" fill="white"/>
<path d="M30.2816 37.5665C31.6376 37.5665 32.7368 36.4696 32.7368 35.1165C32.7368 33.7634 31.6376 32.6665 30.2816 32.6665C28.9256 32.6665 27.8263 33.7634 27.8263 35.1165C27.8263 36.4696 28.9256 37.5665 30.2816 37.5665Z" fill="white"/>
<path d="M36.8289 26.1334C38.1849 26.1334 39.2842 25.0365 39.2842 23.6834C39.2842 22.3303 38.1849 21.2334 36.8289 21.2334C35.4729 21.2334 34.3737 22.3303 34.3737 23.6834C34.3737 25.0365 35.4729 26.1334 36.8289 26.1334Z" fill="white"/>
<path d="M25.371 26.1334C26.727 26.1334 27.8263 25.0365 27.8263 23.6834C27.8263 22.3303 26.727 21.2334 25.371 21.2334C24.015 21.2334 22.9158 22.3303 22.9158 23.6834C22.9158 25.0365 24.015 26.1334 25.371 26.1334Z" fill="white"/>
<path d="M30.2816 14.6998C31.6376 14.6998 32.7368 13.6029 32.7368 12.2498C32.7368 10.8967 31.6376 9.7998 30.2816 9.7998C28.9256 9.7998 27.8263 10.8967 27.8263 12.2498C27.8263 13.6029 28.9256 14.6998 30.2816 14.6998Z" fill="white"/>
<path d="M20.4605 14.6998C21.8165 14.6998 22.9158 13.6029 22.9158 12.2498C22.9158 10.8967 21.8165 9.7998 20.4605 9.7998C19.1045 9.7998 18.0052 10.8967 18.0052 12.2498C18.0052 13.6029 19.1045 14.6998 20.4605 14.6998Z" fill="white"/>
<path d="M13.9132 23.6831H25.3711L30.2816 35.1164H20.4606" stroke="white"/>
<path d="M20.4606 12.25H30.2816" stroke="white"/>
<path d="M75.0983 13.0327H67.9944V35.8013H75.0983C82.595 35.8013 87.2109 31.522 87.2109 24.466C87.2109 17.41 82.595 13.0327 75.0983 13.0327ZM70.9734 33.3513V15.45H75.0983C81.0564 15.45 84.1664 18.9127 84.1664 24.466C84.1664 30.0193 81.0564 33.3513 75.0983 33.3513H70.9734ZM103.417 13H91.1403V35.8013H103.417V33.3513H94.1194V25.5113H102.435V23.0613H94.1194V15.45H103.417V13ZM120.201 13H107.924V35.8013H120.201V33.3513H110.903V25.5113H119.219V23.0613H110.903V15.45H120.201V13ZM127.687 23.8453V15.4827H132.074C135.479 15.4827 136.919 17.0507 136.919 19.6967C136.919 22.2447 135.479 23.8453 132.074 23.8453H127.687ZM139.964 19.6967C139.964 15.9727 137.443 13.0327 132.074 13.0327H124.708V35.8013H127.687V26.2953H132.074C137.738 26.2953 139.964 23.1593 139.964 19.6967Z" fill="black"/>
<path d="M150.659 17.802H156.748V36.2587H162.346V17.802H168.436V13.3267H150.659V17.802ZM185.551 36.2587H191.149V13.3267H185.551V22.31H176.843V13.3267H171.245V36.2587H176.843V26.818H185.551V36.2587ZM217.811 24.7273C217.811 17.8347 212.606 13 206.059 13C199.544 13 194.241 17.8347 194.241 24.7273C194.241 31.62 199.544 36.4873 206.059 36.4873C212.573 36.4873 217.811 31.62 217.811 24.7273ZM199.97 24.7273C199.97 20.644 202.327 18.0633 206.059 18.0633C209.725 18.0633 212.115 20.644 212.115 24.7273C212.115 28.7453 209.725 31.3913 206.059 31.3913C202.327 31.3913 199.97 28.7453 199.97 24.7273ZM220.826 27.014C220.826 33.3513 224.984 36.4873 230.32 36.4873C235.623 36.4873 240.076 33.3513 240.076 27.014V13.3267H234.478V27.0467C234.478 29.758 233.07 31.326 230.418 31.326C227.767 31.326 226.424 29.758 226.424 27.0467V13.3267H220.826V27.014ZM254.745 13.0653C247.87 13.0653 243.058 17.9 243.058 24.76C243.058 31.62 247.903 36.422 254.778 36.422C260.834 36.422 264.664 32.4693 265.843 28.5167V23.3227H253.665V27.4387H260.769C259.917 30.0193 257.986 31.4893 255.203 31.4893C251.177 31.4893 248.754 29.0067 248.754 24.76C248.754 20.7747 251.144 18.2267 254.745 18.2267C256.84 18.2267 258.412 19.0433 259.263 20.5787H265.45C264.239 15.8747 260.245 13.0653 254.745 13.0653ZM283.249 36.2587H288.847V13.3267H283.249V22.31H274.541V13.3267H268.943V36.2587H274.541V26.818H283.249V36.2587ZM291.644 17.802H297.733V36.2587H303.331V17.802H309.42V13.3267H291.644V17.802Z" fill="#0029FF"/>
</svg>
